<svg xmlns="http://www.w3.org/2000/svg" viewBox="0 0 1920 1080" width="1920" height="1080" role="img">
  <title>Cybersecurity &amp; Cloud Engineering Portfolio Hero Background</title>
  <desc>Dark navy hero background featuring cloud infrastructure, security shield, server nodes, and networking connections on the right side, with empty left space for portfolio content.</desc>

  <defs>
    <!-- Radial glow for shield center -->
    <radialGradient id="shieldGlow" cx="50%" cy="50%" r="50%">
      <stop offset="0%" stop-color="#1a6fff" stop-opacity="0.35"/>
      <stop offset="100%" stop-color="#1a6fff" stop-opacity="0"/>
    </radialGradient>

    <!-- Radial glow for cloud -->
    <radialGradient id="cloudGlow" cx="50%" cy="50%" r="50%">
      <stop offset="0%" stop-color="#0a4fd4" stop-opacity="0.25"/>
      <stop offset="100%" stop-color="#0a4fd4" stop-opacity="0"/>
    </radialGradient>

    <!-- Node pulse glow -->
    <radialGradient id="nodeGlow" cx="50%" cy="50%" r="50%">
      <stop offset="0%" stop-color="#2d7fff" stop-opacity="0.5"/>
      <stop offset="100%" stop-color="#2d7fff" stop-opacity="0"/>
    </radialGradient>

    <!-- Background deep gradient -->
    <linearGradient id="bgGrad" x1="0%" y1="0%" x2="100%" y2="100%">
      <stop offset="0%" stop-color="#050b18"/>
      <stop offset="50%" stop-color="#080f22"/>
      <stop offset="100%" stop-color="#030813"/>
    </linearGradient>

    <!-- Left fade gradient for edge blending -->
    <linearGradient id="leftFade" x1="0%" y1="0%" x2="100%" y2="0%">
      <stop offset="0%" stop-color="#050b18" stop-opacity="1"/>
      <stop offset="100%" stop-color="#050b18" stop-opacity="0"/>
    </linearGradient>

    <!-- Vignette gradient -->
    <radialGradient id="vignette" cx="60%" cy="50%" r="70%">
      <stop offset="0%" stop-color="#050b18" stop-opacity="0"/>
      <stop offset="100%" stop-color="#020610" stop-opacity="0.7"/>
    </radialGradient>

    <!-- Subtle grid line glow -->
    <filter id="softGlow" x="-20%" y="-20%" width="140%" height="140%">
      <feGaussianBlur stdDeviation="3" result="blur"/>
      <feMerge><feMergeNode in="blur"/><feMergeNode in="SourceGraphic"/></feMerge>
    </filter>

    <!-- Larger glow for shield -->
    <filter id="strongGlow" x="-50%" y="-50%" width="200%" height="200%">
      <feGaussianBlur stdDeviation="8" result="blur"/>
      <feMerge><feMergeNode in="blur"/><feMergeNode in="blur"/><feMergeNode in="SourceGraphic"/></feMerge>
    </filter>

    <!-- Medium glow for nodes and labels -->
    <filter id="medGlow" x="-30%" y="-30%" width="160%" height="160%">
      <feGaussianBlur stdDeviation="4" result="blur"/>
      <feMerge><feMergeNode in="blur"/><feMergeNode in="SourceGraphic"/></feMerge>
    </filter>

    <!-- Clip for central composition -->
    <clipPath id="mainClip">
      <rect x="0" y="0" width="1920" height="1080"/>
    </clipPath>
  </defs>

  <!-- ═══════════════════════════════════════════════
       LAYER 0: BASE BACKGROUND
  ═══════════════════════════════════════════════ -->
  <rect width="1920" height="1080" fill="url(#bgGrad)"/>

  <!-- ═══════════════════════════════════════════════
       LAYER 1: GRID LINES
  ═══════════════════════════════════════════════ -->
  <g opacity="0.045" stroke="#3a7fff" stroke-width="0.6" fill="none">
    <!-- Vertical grid lines -->
    <line x1="120" y1="0" x2="120" y2="1080"/>
    <line x1="240" y1="0" x2="240" y2="1080"/>
    <line x1="360" y1="0" x2="360" y2="1080"/>
    <line x1="480" y1="0" x2="480" y2="1080"/>
    <line x1="600" y1="0" x2="600" y2="1080"/>
    <line x1="720" y1="0" x2="720" y2="1080"/>
    <line x1="840" y1="0" x2="840" y2="1080"/>
    <line x1="960" y1="0" x2="960" y2="1080"/>
    <line x1="1080" y1="0" x2="1080" y2="1080"/>
    <line x1="1200" y1="0" x2="1200" y2="1080"/>
    <line x1="1320" y1="0" x2="1320" y2="1080"/>
    <line x1="1440" y1="0" x2="1440" y2="1080"/>
    <line x1="1560" y1="0" x2="1560" y2="1080"/>
    <line x1="1680" y1="0" x2="1680" y2="1080"/>
    <line x1="1800" y1="0" x2="1800" y2="1080"/>
    <!-- Horizontal grid lines -->
    <line x1="0" y1="108" x2="1920" y2="108"/>
    <line x1="0" y1="216" x2="1920" y2="216"/>
    <line x1="0" y1="324" x2="1920" y2="324"/>
    <line x1="0" y1="432" x2="1920" y2="432"/>
    <line x1="0" y1="540" x2="1920" y2="540"/>
    <line x1="0" y1="648" x2="1920" y2="648"/>
    <line x1="0" y1="756" x2="1920" y2="756"/>
    <line x1="0" y1="864" x2="1920" y2="864"/>
    <line x1="0" y1="972" x2="1920" y2="972"/>
  </g>

  <!-- Fine sub-grid (right side only, more detail) -->
  <g opacity="0.025" stroke="#2a5fff" stroke-width="0.4" fill="none">
    <line x1="768" y1="0" x2="768" y2="1080"/>
    <line x1="900" y1="0" x2="900" y2="1080"/>
    <line x1="1020" y1="0" x2="1020" y2="1080"/>
    <line x1="1140" y1="0" x2="1140" y2="1080"/>
    <line x1="1260" y1="0" x2="1260" y2="1080"/>
    <line x1="1380" y1="0" x2="1380" y2="1080"/>
    <line x1="1500" y1="0" x2="1500" y2="1080"/>
    <line x1="1620" y1="0" x2="1620" y2="1080"/>
    <line x1="1740" y1="0" x2="1740" y2="1080"/>
    <line x1="1860" y1="0" x2="1860" y2="1080"/>
    <line x1="768" y1="54" x2="1920" y2="54"/>
    <line x1="768" y1="162" x2="1920" y2="162"/>
    <line x1="768" y1="270" x2="1920" y2="270"/>
    <line x1="768" y1="378" x2="1920" y2="378"/>
    <line x1="768" y1="486" x2="1920" y2="486"/>
    <line x1="768" y1="594" x2="1920" y2="594"/>
    <line x1="768" y1="702" x2="1920" y2="702"/>
    <line x1="768" y1="810" x2="1920" y2="810"/>
    <line x1="768" y1="918" x2="1920" y2="918"/>
  </g>

  <!-- Accent bright grid lines (sparse, right side) -->
  <g opacity="0.07" stroke="#4a8fff" stroke-width="0.8" fill="none">
    <line x1="960" y1="0" x2="960" y2="1080"/>
    <line x1="1440" y1="0" x2="1440" y2="1080"/>
    <line x1="768" y1="0" x2="768" y2="1080"/>
    <line x1="0" y1="540" x2="1920" y2="540"/>
    <line x1="0" y1="216" x2="1920" y2="216"/>
    <line x1="0" y1="864" x2="1920" y2="864"/>
  </g>

  <!-- ═══════════════════════════════════════════════
       LAYER 2: DEEP BACKGROUND GLOW HALOS
  ═══════════════════════════════════════════════ -->

  <!-- Main central-right atmosphere glow -->
  <ellipse cx="1280" cy="520" rx="680" ry="480" fill="#0a2560" opacity="0.18"/>
  <ellipse cx="1280" cy="520" rx="400" ry="280" fill="#0a3080" opacity="0.14"/>

  <!-- Top-right atmospheric glow -->
  <ellipse cx="1600" cy="180" rx="380" ry="280" fill="#0820a0" opacity="0.09"/>

  <!-- Bottom right glow -->
  <ellipse cx="1500" cy="900" rx="350" ry="200" fill="#051840" opacity="0.13"/>


  <!-- ═══════════════════════════════════════════════
       LAYER 3: DECORATIVE CIRCUIT / HEX BACKGROUND PATTERN
       (Right side only, subtle)
  ═══════════════════════════════════════════════ -->

  <!-- Subtle hexagonal grid overlay - right side -->
  <g opacity="0.05" stroke="#2060d0" stroke-width="0.6" fill="none">
    <!-- Row 1 hex shapes (simplified as path segments) -->
    <polygon points="1050,80 1080,62 1110,80 1110,116 1080,134 1050,116" />
    <polygon points="1150,80 1180,62 1210,80 1210,116 1180,134 1150,116" />
    <polygon points="1250,80 1280,62 1310,80 1310,116 1280,134 1250,116" />
    <polygon points="1350,80 1380,62 1410,80 1410,116 1380,134 1350,116" />
    <polygon points="1450,80 1480,62 1510,80 1510,116 1480,134 1450,116" />
    <polygon points="1550,80 1580,62 1610,80 1610,116 1580,134 1550,116" />
    <polygon points="1650,80 1680,62 1710,80 1710,116 1680,134 1650,116" />
    <polygon points="1750,80 1780,62 1810,80 1810,116 1780,134 1750,116" />
    <polygon points="1850,80 1880,62 1910,80 1910,116 1880,134 1850,116" />
    <!-- Row 2 (offset) -->
    <polygon points="1100,134 1130,116 1160,134 1160,170 1130,188 1100,170" />
    <polygon points="1200,134 1230,116 1260,134 1260,170 1230,188 1200,170" />
    <polygon points="1300,134 1330,116 1360,134 1360,170 1330,188 1300,170" />
    <polygon points="1400,134 1430,116 1460,134 1460,170 1430,188 1400,170" />
    <polygon points="1500,134 1530,116 1560,134 1560,170 1530,188 1500,170" />
    <polygon points="1600,134 1630,116 1660,134 1660,170 1630,188 1600,170" />
    <polygon points="1700,134 1730,116 1760,134 1760,170 1730,188 1700,170" />
    <polygon points="1800,134 1830,116 1860,134 1860,170 1830,188 1800,170" />
    <!-- Row 3 -->
    <polygon points="1050,188 1080,170 1110,188 1110,224 1080,242 1050,224" />
    <polygon points="1150,188 1180,170 1210,188 1210,224 1180,242 1150,224" />
    <polygon points="1350,188 1380,170 1410,188 1410,224 1380,242 1350,224" />
    <polygon points="1550,188 1580,170 1610,188 1610,224 1580,242 1550,224" />
    <polygon points="1750,188 1780,170 1810,188 1810,224 1780,242 1750,224" />
    <!-- Row 4 -->
    <polygon points="1100,836 1130,818 1160,836 1160,872 1130,890 1100,872" />
    <polygon points="1300,836 1330,818 1360,836 1360,872 1330,890 1300,872" />
    <polygon points="1500,836 1530,818 1560,836 1560,872 1530,890 1500,872" />
    <polygon points="1700,836 1730,818 1760,836 1760,872 1730,890 1700,872" />
    <polygon points="1900,836 1930,818 1960,836 1960,872 1930,890 1900,872" />
    <!-- Row 5 (bottom) -->
    <polygon points="1050,890 1080,872 1110,890 1110,926 1080,944 1050,926" />
    <polygon points="1150,890 1180,872 1210,890 1210,926 1180,944 1150,926" />
    <polygon points="1350,890 1380,872 1410,890 1410,926 1380,944 1350,926" />
    <polygon points="1550,890 1580,872 1610,890 1610,926 1580,944 1550,926" />
    <polygon points="1750,890 1780,872 1810,890 1810,926 1780,944 1750,926" />
  </g>


  <!-- ═══════════════════════════════════════════════
       LAYER 4: DATA FLOW CONNECTION LINES
       (All behind main components)
  ═══════════════════════════════════════════════ -->

  <!-- Primary connections - shield to cloud -->
  <path d="M 1280 480 Q 1280 300 1200 240" stroke="#1a5fff" stroke-width="1" fill="none" opacity="0.25" stroke-dasharray="6 4"/>
  <path d="M 1280 480 Q 1360 360 1480 280" stroke="#1a5fff" stroke-width="0.8" fill="none" opacity="0.2" stroke-dasharray="8 5"/>

  <!-- Shield to server rack connections -->
  <path d="M 1180 600 Q 1050 640  920 680" stroke="#1a4fff" stroke-width="0.9" fill="none" opacity="0.3" stroke-dasharray="5 4"/>
  <path d="M 1180 600 Q 1100 700  990 760" stroke="#1a4fff" stroke-width="0.7" fill="none" opacity="0.2" stroke-dasharray="6 5"/>
  <path d="M 1380 600 Q 1500 660  1620 720" stroke="#1a4fff" stroke-width="0.9" fill="none" opacity="0.3" stroke-dasharray="5 4"/>

  <!-- Network node connections (web of lines) -->
  <line x1="920" y1="280" x2="1080" y2="200" stroke="#1a4fff" stroke-width="0.7" opacity="0.22" stroke-dasharray="4 5"/>
  <line x1="920" y1="280" x2="1050" y2="400" stroke="#1a4fff" stroke-width="0.7" opacity="0.2" stroke-dasharray="4 5"/>
  <line x1="920" y1="280" x2="800" y2="380" stroke="#1a4fff" stroke-width="0.6" opacity="0.18" stroke-dasharray="4 5"/>
  <line x1="1080" y1="200" x2="1200" y2="240" stroke="#1a5fff" stroke-width="0.7" opacity="0.22" stroke-dasharray="4 5"/>
  <line x1="800" y1="380" x2="920" y2="680" stroke="#1a4fff" stroke-width="0.6" opacity="0.16" stroke-dasharray="4 5"/>
  <line x1="1050" y1="400" x2="920" y2="680" stroke="#1a4fff" stroke-width="0.7" opacity="0.2" stroke-dasharray="4 5"/>

  <!-- Right side node web -->
  <line x1="1620" y1="200" x2="1780" y2="300" stroke="#1a4fff" stroke-width="0.7" opacity="0.22" stroke-dasharray="4 5"/>
  <line x1="1780" y1="300" x2="1840" y2="480" stroke="#1a4fff" stroke-width="0.7" opacity="0.2" stroke-dasharray="4 5"/>
  <line x1="1840" y1="480" x2="1750" y2="680" stroke="#1a4fff" stroke-width="0.6" opacity="0.18" stroke-dasharray="4 5"/>
  <line x1="1620" y1="200" x2="1480" y2="280" stroke="#1a5fff" stroke-width="0.7" opacity="0.22" stroke-dasharray="4 5"/>
  <line x1="1620" y1="720" x2="1750" y2="680" stroke="#1a4fff" stroke-width="0.7" opacity="0.2" stroke-dasharray="4 5"/>
  <line x1="1750" y1="680" x2="1840" y2="800" stroke="#1a4fff" stroke-width="0.6" opacity="0.18" stroke-dasharray="4 5"/>
  <line x1="1840" y1="800" x2="1700" y2="880" stroke="#1a4fff" stroke-width="0.6" opacity="0.16" stroke-dasharray="4 5"/>

  <!-- Shield to right cluster -->
  <line x1="1380" y1="540" x2="1620" y2="720" stroke="#1a5fff" stroke-width="0.8" opacity="0.2" stroke-dasharray="5 5"/>
  <line x1="1380" y1="540" x2="1620" y2="200" stroke="#1a5fff" stroke-width="0.7" opacity="0.18" stroke-dasharray="5 5"/>
  <line x1="1380" y1="540" x2="1480" y2="280" stroke="#1a5fff" stroke-width="0.8" opacity="0.22" stroke-dasharray="5 5"/>

  <!-- Bottom server connections -->
  <line x1="990" y1="760" x2="920" y2="680" stroke="#1a4fff" stroke-width="0.7" opacity="0.22" stroke-dasharray="4 5"/>
  <line x1="990" y1="760" x2="1100" y2="820" stroke="#1a4fff" stroke-width="0.8" opacity="0.25" stroke-dasharray="4 5"/>
  <line x1="1100" y1="820" x2="1280" y2="800" stroke="#1a5fff" stroke-width="0.7" opacity="0.2" stroke-dasharray="4 5"/>
  <line x1="1280" y1="800" x2="1450" y2="840" stroke="#1a5fff" stroke-width="0.7" opacity="0.2" stroke-dasharray="4 5"/>
  <line x1="1450" y1="840" x2="1620" y2="720" stroke="#1a4fff" stroke-width="0.7" opacity="0.2" stroke-dasharray="4 5"/>

  <!-- Extra diagonal long-range connections -->
  <line x1="800" y1="380" x2="1180" y2="540" stroke="#1a5fff" stroke-width="0.6" opacity="0.15" stroke-dasharray="6 6"/>
  <line x1="1200" y1="240" x2="1620" y2="200" stroke="#1a5fff" stroke-width="0.6" opacity="0.15" stroke-dasharray="6 6"/>
  <line x1="1840" y1="480" x2="1380" y2="540" stroke="#1a4fff" stroke-width="0.6" opacity="0.15" stroke-dasharray="6 6"/>


  <!-- ═══════════════════════════════════════════════
       LAYER 5: SMALL NETWORK NODES (dots with glow)
  ═══════════════════════════════════════════════ -->

  <!-- Floating network nodes -->
  <g filter="url(#medGlow)">
    <circle cx="920" cy="280" r="5" fill="#1a5fff" opacity="0.7"/>
    <circle cx="920" cy="280" r="2.5" fill="#60a0ff" opacity="0.9"/>

    <circle cx="1080" cy="200" r="4.5" fill="#1a5fff" opacity="0.65"/>
    <circle cx="1080" cy="200" r="2" fill="#60a0ff" opacity="0.9"/>

    <circle cx="800" cy="380" r="4" fill="#1a5fff" opacity="0.6"/>
    <circle cx="800" cy="380" r="2" fill="#60a0ff" opacity="0.85"/>

    <circle cx="1050" cy="400" r="4" fill="#1a5fff" opacity="0.6"/>
    <circle cx="1050" cy="400" r="2" fill="#60a0ff" opacity="0.85"/>

    <circle cx="920" cy="680" r="5" fill="#1a5fff" opacity="0.7"/>
    <circle cx="920" cy="680" r="2.5" fill="#60a0ff" opacity="0.9"/>

    <circle cx="1620" cy="200" r="5" fill="#1a5fff" opacity="0.7"/>
    <circle cx="1620" cy="200" r="2.5" fill="#60a0ff" opacity="0.9"/>

    <circle cx="1480" cy="280" r="4.5" fill="#1a5fff" opacity="0.65"/>
    <circle cx="1480" cy="280" r="2" fill="#60a0ff" opacity="0.9"/>

    <circle cx="1780" cy="300" r="4.5" fill="#1a5fff" opacity="0.65"/>
    <circle cx="1780" cy="300" r="2" fill="#60a0ff" opacity="0.85"/>

    <circle cx="1840" cy="480" r="5" fill="#1a5fff" opacity="0.7"/>
    <circle cx="1840" cy="480" r="2.5" fill="#60a0ff" opacity="0.9"/>

    <circle cx="1750" cy="680" r="4.5" fill="#1a5fff" opacity="0.65"/>
    <circle cx="1750" cy="680" r="2" fill="#60a0ff" opacity="0.85"/>

    <circle cx="1840" cy="800" r="4" fill="#1a5fff" opacity="0.6"/>
    <circle cx="1840" cy="800" r="2" fill="#60a0ff" opacity="0.85"/>

    <circle cx="1700" cy="880" r="4" fill="#1a5fff" opacity="0.6"/>
    <circle cx="1700" cy="880" r="2" fill="#60a0ff" opacity="0.85"/>

    <circle cx="990" cy="760" r="4.5" fill="#1a5fff" opacity="0.65"/>
    <circle cx="990" cy="760" r="2" fill="#60a0ff" opacity="0.85"/>

    <circle cx="1100" cy="820" r="4" fill="#1a5fff" opacity="0.6"/>
    <circle cx="1100" cy="820" r="2" fill="#60a0ff" opacity="0.85"/>

    <circle cx="1280" cy="800" r="4.5" fill="#1a5fff" opacity="0.65"/>
    <circle cx="1280" cy="800" r="2" fill="#60a0ff" opacity="0.85"/>

    <circle cx="1450" cy="840" r="4" fill="#1a5fff" opacity="0.6"/>
    <circle cx="1450" cy="840" r="2" fill="#60a0ff" opacity="0.85"/>
  </g>

  <!-- Small scattered pixel dots (background texture) -->
  <g fill="#2060d0" opacity="0.4">
    <rect x="860" y="150" width="1.5" height="1.5"/>
    <rect x="920" y="170" width="1.5" height="1.5"/>
    <rect x="980" y="130" width="1.5" height="1.5"/>
    <rect x="1040" y="160" width="1.5" height="1.5"/>
    <rect x="1120" y="145" width="1.5" height="1.5"/>
    <rect x="1160" y="175" width="1.5" height="1.5"/>
    <rect x="1320" y="155" width="1.5" height="1.5"/>
    <rect x="1400" y="140" width="1.5" height="1.5"/>
    <rect x="1500" y="165" width="1.5" height="1.5"/>
    <rect x="1560" y="130" width="1.5" height="1.5"/>
    <rect x="1660" y="150" width="1.5" height="1.5"/>
    <rect x="1720" y="170" width="1.5" height="1.5"/>
    <rect x="840" y="460" width="1.5" height="1.5"/>
    <rect x="870" y="500" width="1.5" height="1.5"/>
    <rect x="1900" y="350" width="1.5" height="1.5"/>
    <rect x="1880" y="600" width="1.5" height="1.5"/>
    <rect x="1910" y="700" width="1.5" height="1.5"/>
    <rect x="850" y="900" width="1.5" height="1.5"/>
    <rect x="890" y="940" width="1.5" height="1.5"/>
    <rect x="950" y="960" width="1.5" height="1.5"/>
  </g>


  <!-- ═══════════════════════════════════════════════
       LAYER 6: CLOUD INFRASTRUCTURE COMPONENT
       Positioned: top-center-right ~1200,220
  ═══════════════════════════════════════════════ -->

  <!-- Cloud glow halo -->
  <ellipse cx="1200" cy="230" rx="180" ry="120" fill="url(#cloudGlow)" opacity="0.6"/>

  <!-- Cloud shape (enterprise cloud icon style) -->
  <g filter="url(#softGlow)">
    <!-- Main cloud body -->
    <path d="M 1080 260 
             C 1060 260 1044 244 1044 224 
             C 1044 204 1060 188 1080 188 
             C 1082 188 1084 188 1086 189
             C 1090 168 1108 152 1130 152 
             C 1148 152 1164 162 1172 177
             C 1180 168 1192 162 1206 162 
             C 1234 162 1256 184 1256 212
             C 1262 208 1270 206 1278 206
             C 1302 206 1322 226 1322 250
             C 1322 274 1302 294 1278 294
             L 1080 294 Z"
          fill="#0a1f4a" stroke="#1a5fff" stroke-width="1.2" opacity="0.9"/>

    <!-- Cloud highlight edge -->
    <path d="M 1080 260 
             C 1060 260 1044 244 1044 224 
             C 1044 204 1060 188 1080 188 
             C 1082 188 1084 188 1086 189
             C 1090 168 1108 152 1130 152 
             C 1148 152 1164 162 1172 177
             C 1180 168 1192 162 1206 162 
             C 1234 162 1256 184 1256 212
             C 1262 208 1270 206 1278 206
             C 1302 206 1322 226 1322 250
             C 1322 274 1302 294 1278 294
             L 1080 294 Z"
          fill="none" stroke="#3a8fff" stroke-width="0.6" opacity="0.5"/>

    <!-- Cloud internal lines (server divisions) -->
    <line x1="1120" y1="230" x2="1120" y2="285" stroke="#1a4fff" stroke-width="0.7" opacity="0.4"/>
    <line x1="1185" y1="210" x2="1185" y2="285" stroke="#1a4fff" stroke-width="0.7" opacity="0.4"/>
    <line x1="1250" y1="220" x2="1250" y2="285" stroke="#1a4fff" stroke-width="0.7" opacity="0.35"/>

    <!-- Cloud small LED dots (status indicators) -->
    <circle cx="1095" cy="258" r="2.5" fill="#2a8fff" opacity="0.9"/>
    <circle cx="1152" cy="252" r="2.5" fill="#2a8fff" opacity="0.8"/>
    <circle cx="1218" cy="250" r="2.5" fill="#2a8fff" opacity="0.9"/>
    <circle cx="1284" cy="260" r="2" fill="#1a6fff" opacity="0.7"/>

    <!-- Cloud label lines at bottom -->
    <line x1="1060" y1="285" x2="1310" y2="285" stroke="#1a4fff" stroke-width="0.6" opacity="0.5"/>
    <line x1="1060" y1="279" x2="1310" y2="279" stroke="#1a4fff" stroke-width="0.4" opacity="0.3"/>

    <!-- Label text -->
    <text x="1183" y="310" font-family="'Courier New', monospace" font-size="9" fill="#3a7fff" opacity="0.7" text-anchor="middle" letter-spacing="2">CLOUD INFRASTRUCTURE</text>
  </g>

  <!-- Cloud connection ports (bottom of cloud) -->
  <g opacity="0.7" fill="none" stroke="#1a5fff" stroke-width="1">
    <line x1="1130" y1="294" x2="1130" y2="320" stroke-width="1.2"/>
    <line x1="1183" y1="294" x2="1183" y2="320" stroke-width="1.2"/>
    <line x1="1236" y1="294" x2="1236" y2="320"/>
    <circle cx="1130" cy="322" r="3" fill="#1a5fff" opacity="0.6"/>
    <circle cx="1183" cy="322" r="3" fill="#1a5fff" opacity="0.6"/>
    <circle cx="1236" cy="322" r="2.5" fill="#1a5fff" opacity="0.5"/>
  </g>


  <!-- ═══════════════════════════════════════════════
       LAYER 7: SECURITY SHIELD (Main focal point)
       Centered at: 1280,540
  ═══════════════════════════════════════════════ -->

  <!-- Shield outer glow -->
  <ellipse cx="1280" cy="530" rx="200" ry="220" fill="url(#shieldGlow)" opacity="0.8"/>

  <g filter="url(#strongGlow)">
    <!-- Shield outer shape -->
    <path d="M 1280 340 L 1380 380 L 1400 480 Q 1400 580 1280 660 Q 1160 580 1160 480 L 1180 380 Z"
          fill="#06142e" stroke="#1a5fff" stroke-width="2" opacity="0.95"/>

    <!-- Shield outer edge highlight -->
    <path d="M 1280 340 L 1380 380 L 1400 480 Q 1400 580 1280 660 Q 1160 580 1160 480 L 1180 380 Z"
          fill="none" stroke="#5599ff" stroke-width="0.8" opacity="0.5"/>

    <!-- Shield inner panel -->
    <path d="M 1280 368 L 1360 400 L 1376 484 Q 1376 566 1280 632 Q 1184 566 1184 484 L 1200 400 Z"
          fill="#071828" stroke="#1a4fff" stroke-width="1" opacity="0.9"/>

    <!-- Shield horizontal scan lines (tech aesthetic) -->
    <line x1="1192" y1="420" x2="1368" y2="420" stroke="#1a5fff" stroke-width="0.5" opacity="0.35"/>
    <line x1="1188" y1="440" x2="1372" y2="440" stroke="#1a5fff" stroke-width="0.5" opacity="0.3"/>
    <line x1="1186" y1="460" x2="1374" y2="460" stroke="#1a5fff" stroke-width="0.5" opacity="0.35"/>
    <line x1="1186" y1="480" x2="1374" y2="480" stroke="#1a5fff" stroke-width="0.5" opacity="0.3"/>
    <line x1="1188" y1="500" x2="1372" y2="500" stroke="#1a5fff" stroke-width="0.5" opacity="0.3"/>
    <line x1="1192" y1="520" x2="1368" y2="520" stroke="#1a5fff" stroke-width="0.5" opacity="0.25"/>
    <line x1="1198" y1="540" x2="1362" y2="540" stroke="#1a5fff" stroke-width="0.5" opacity="0.2"/>
    <line x1="1208" y1="560" x2="1352" y2="560" stroke="#1a5fff" stroke-width="0.5" opacity="0.18"/>
    <line x1="1224" y1="580" x2="1336" y2="580" stroke="#1a5fff" stroke-width="0.5" opacity="0.15"/>
    <line x1="1244" y1="600" x2="1316" y2="600" stroke="#1a5fff" stroke-width="0.5" opacity="0.12"/>

    <!-- Lock icon centered in shield -->
    <!-- Lock body -->
    <rect x="1256" y="490" width="48" height="38" rx="5" fill="none" stroke="#3a8fff" stroke-width="1.5" opacity="0.9"/>
    <rect x="1258" y="492" width="44" height="34" rx="4" fill="#0a2050" opacity="0.7"/>
    <!-- Lock shackle -->
    <path d="M 1268 490 L 1268 474 Q 1268 458 1280 458 Q 1292 458 1292 474 L 1292 490"
          fill="none" stroke="#3a8fff" stroke-width="1.5" stroke-linecap="round" opacity="0.9"/>
    <!-- Lock keyhole -->
    <circle cx="1280" cy="509" r="5" fill="none" stroke="#60aaff" stroke-width="1.2" opacity="0.9"/>
    <line x1="1280" y1="514" x2="1280" y2="522" stroke="#60aaff" stroke-width="1.2" stroke-linecap="round" opacity="0.9"/>

    <!-- Shield corner accent marks -->
    <path d="M 1196 398 L 1204 394 L 1212 400" fill="none" stroke="#3a8fff" stroke-width="1" opacity="0.6"/>
    <path d="M 1348 394 L 1360 398 L 1364 410" fill="none" stroke="#3a8fff" stroke-width="1" opacity="0.6"/>
    <path d="M 1172 490 L 1172 482 L 1178 478" fill="none" stroke="#3a8fff" stroke-width="1" opacity="0.5"/>
    <path d="M 1388 478 L 1388 490" fill="none" stroke="#3a8fff" stroke-width="1" opacity="0.5"/>

    <!-- Shield edge arc decorations -->
    <path d="M 1240 358 Q 1260 350 1280 348 Q 1300 350 1320 358"
          fill="none" stroke="#3a8fff" stroke-width="0.8" opacity="0.4"/>

    <!-- Shield label text -->
    <text x="1280" y="386" font-family="'Courier New', monospace" font-size="8" fill="#3a8fff" opacity="0.6" text-anchor="middle" letter-spacing="3">SECURE</text>
  </g>

  <!-- Shield outer ring  -->
  <circle cx="1280" cy="500" r="155" fill="none" stroke="#1a4fff" stroke-width="0.7" opacity="0.2" stroke-dasharray="8 6"/>
  <circle cx="1280" cy="500" r="175" fill="none" stroke="#1a4fff" stroke-width="0.5" opacity="0.12" stroke-dasharray="12 8"/>


  <!-- ═══════════════════════════════════════════════
       LAYER 8: LEFT SERVER RACK
       Positioned at: ~920,640
  ═══════════════════════════════════════════════ -->

  <!-- Server rack outer frame -->
  <rect x="870" y="600" width="120" height="180" rx="4" fill="#050e20" stroke="#1a3d8f" stroke-width="1.2" opacity="0.9"/>
  <!-- Rack face panels -->
  <rect x="878" y="612" width="104" height="14" rx="2" fill="#080f1e" stroke="#1a3d7f" stroke-width="0.7" opacity="0.9"/>
  <rect x="878" y="630" width="104" height="14" rx="2" fill="#080f1e" stroke="#1a3d7f" stroke-width="0.7" opacity="0.9"/>
  <rect x="878" y="648" width="104" height="14" rx="2" fill="#080f1e" stroke="#1a3d7f" stroke-width="0.7" opacity="0.9"/>
  <rect x="878" y="666" width="104" height="14" rx="2" fill="#080f1e" stroke="#1a3d7f" stroke-width="0.7" opacity="0.9"/>
  <rect x="878" y="684" width="104" height="14" rx="2" fill="#080f1e" stroke="#1a3d7f" stroke-width="0.7" opacity="0.9"/>
  <rect x="878" y="702" width="104" height="14" rx="2" fill="#080f1e" stroke="#1a3d7f" stroke-width="0.7" opacity="0.9"/>
  <rect x="878" y="720" width="104" height="14" rx="2" fill="#080f1e" stroke="#1a3d7f" stroke-width="0.7" opacity="0.9"/>
  <rect x="878" y="738" width="104" height="14" rx="2" fill="#080f1e" stroke="#1a3d7f" stroke-width="0.7" opacity="0.9"/>
  <rect x="878" y="756" width="104" height="14" rx="2" fill="#080f1e" stroke="#1a3d7f" stroke-width="0.7" opacity="0.9"/>

  <!-- Server LED indicators -->
  <g fill="#1a8fff" opacity="0.9">
    <circle cx="888" cy="619" r="2"/>
    <circle cx="888" cy="637" r="2"/>
    <circle cx="888" cy="655" r="2"/>
    <circle cx="888" cy="673" r="2"/>
    <circle cx="888" cy="691" r="2"/>
    <circle cx="888" cy="709" r="2"/>
    <circle cx="888" cy="727" r="2"/>
    <circle cx="888" cy="745" r="2"/>
    <circle cx="888" cy="763" r="2"/>
  </g>
  <!-- Second column LEDs (some off) -->
  <g fill="#0a4f90" opacity="0.7">
    <circle cx="898" cy="619" r="1.5"/>
    <circle cx="898" cy="655" r="1.5"/>
    <circle cx="898" cy="691" r="1.5"/>
    <circle cx="898" cy="727" r="1.5"/>
    <circle cx="898" cy="763" r="1.5"/>
  </g>

  <!-- Rack activity bars -->
  <rect x="908" y="614" width="62" height="4" rx="1" fill="#0a2040" stroke="#1a3d7f" stroke-width="0.5" opacity="0.8"/>
  <rect x="908" y="614" width="38" height="4" rx="1" fill="#1a5fff" opacity="0.5"/>
  <rect x="908" y="632" width="62" height="4" rx="1" fill="#0a2040" stroke="#1a3d7f" stroke-width="0.5" opacity="0.8"/>
  <rect x="908" y="632" width="50" height="4" rx="1" fill="#1a5fff" opacity="0.45"/>
  <rect x="908" y="650" width="62" height="4" rx="1" fill="#0a2040" stroke="#1a3d7f" stroke-width="0.5" opacity="0.8"/>
  <rect x="908" y="650" width="22" height="4" rx="1" fill="#1a5fff" opacity="0.5"/>
  <rect x="908" y="668" width="62" height="4" rx="1" fill="#0a2040" stroke="#1a3d7f" stroke-width="0.5" opacity="0.8"/>
  <rect x="908" y="668" width="55" height="4" rx="1" fill="#1a5fff" opacity="0.45"/>

  <text x="930" y="793" font-family="'Courier New', monospace" font-size="8" fill="#2a6fff" opacity="0.6" text-anchor="middle" letter-spacing="1.5">SERVER RACK</text>


  <!-- ═══════════════════════════════════════════════
       LAYER 9: RIGHT SERVER CLUSTER
       Positioned at: ~1620,680 and ~1620,720
  ═══════════════════════════════════════════════ -->

  <!-- Server cluster label -->
  <text x="1620" y="660" font-family="'Courier New', monospace" font-size="8" fill="#2a6fff" opacity="0.6" text-anchor="middle" letter-spacing="1.5">EDGE NODES</text>

  <!-- Server unit 1 -->
  <rect x="1558" y="672" width="130" height="42" rx="3" fill="#050e20" stroke="#1a3d8f" stroke-width="1" opacity="0.9"/>
  <rect x="1564" y="678" width="118" height="12" rx="2" fill="#080f1e" stroke="#1a3d7f" stroke-width="0.6" opacity="0.9"/>
  <rect x="1564" y="694" width="118" height="12" rx="2" fill="#080f1e" stroke="#1a3d7f" stroke-width="0.6" opacity="0.9"/>
  <circle cx="1568" cy="684" r="1.8" fill="#1a8fff" opacity="0.9"/>
  <circle cx="1568" cy="700" r="1.8" fill="#1a8fff" opacity="0.7"/>
  <rect x="1575" y="680" width="98" height="4" rx="1" fill="#0a2040" opacity="0.8"/>
  <rect x="1575" y="680" width="65" height="4" rx="1" fill="#1a5fff" opacity="0.45"/>
  <rect x="1575" y="696" width="98" height="4" rx="1" fill="#0a2040" opacity="0.8"/>
  <rect x="1575" y="696" width="40" height="4" rx="1" fill="#1a5fff" opacity="0.4"/>

  <!-- Server unit 2 -->
  <rect x="1558" y="720" width="130" height="42" rx="3" fill="#050e20" stroke="#1a3d8f" stroke-width="1" opacity="0.9"/>
  <rect x="1564" y="726" width="118" height="12" rx="2" fill="#080f1e" stroke="#1a3d7f" stroke-width="0.6" opacity="0.9"/>
  <rect x="1564" y="742" width="118" height="12" rx="2" fill="#080f1e" stroke="#1a3d7f" stroke-width="0.6" opacity="0.9"/>
  <circle cx="1568" cy="732" r="1.8" fill="#1a8fff" opacity="0.9"/>
  <circle cx="1568" cy="748" r="1.8" fill="#0a4f90" opacity="0.6"/>
  <rect x="1575" y="728" width="98" height="4" rx="1" fill="#0a2040" opacity="0.8"/>
  <rect x="1575" y="728" width="80" height="4" rx="1" fill="#1a5fff" opacity="0.45"/>
  <rect x="1575" y="744" width="98" height="4" rx="1" fill="#0a2040" opacity="0.8"/>
  <rect x="1575" y="744" width="30" height="4" rx="1" fill="#1a5fff" opacity="0.4"/>

  <!-- Server unit 3 -->
  <rect x="1558" y="768" width="130" height="42" rx="3" fill="#050e20" stroke="#1a3d8f" stroke-width="1" opacity="0.9"/>
  <rect x="1564" y="774" width="118" height="12" rx="2" fill="#080f1e" stroke="#1a3d7f" stroke-width="0.6" opacity="0.9"/>
  <rect x="1564" y="790" width="118" height="12" rx="2" fill="#080f1e" stroke="#1a3d7f" stroke-width="0.6" opacity="0.9"/>
  <circle cx="1568" cy="780" r="1.8" fill="#1a8fff" opacity="0.9"/>
  <circle cx="1568" cy="796" r="1.8" fill="#1a8fff" opacity="0.8"/>
  <rect x="1575" y="776" width="98" height="4" rx="1" fill="#0a2040" opacity="0.8"/>
  <rect x="1575" y="776" width="55" height="4" rx="1" fill="#1a5fff" opacity="0.45"/>
  <rect x="1575" y="792" width="98" height="4" rx="1" fill="#0a2040" opacity="0.8"/>
  <rect x="1575" y="792" width="72" height="4" rx="1" fill="#1a5fff" opacity="0.4"/>


  <!-- ═══════════════════════════════════════════════
       LAYER 10: TOP-RIGHT CLUSTER — FIREWALL / ROUTING
       Positioned at: ~1750,380
  ═══════════════════════════════════════════════ -->

  <!-- Firewall box -->
  <rect x="1700" y="350" width="170" height="90" rx="5" fill="#050e20" stroke="#1a3d8f" stroke-width="1.2" opacity="0.9"/>
  <!-- Inner panels -->
  <rect x="1708" y="360" width="154" height="16" rx="2" fill="#080f1e" stroke="#1a3d7f" stroke-width="0.7" opacity="0.9"/>
  <rect x="1708" y="380" width="154" height="16" rx="2" fill="#080f1e" stroke="#1a3d7f" stroke-width="0.7" opacity="0.9"/>
  <rect x="1708" y="400" width="154" height="16" rx="2" fill="#080f1e" stroke="#1a3d7f" stroke-width="0.7" opacity="0.9"/>
  <rect x="1708" y="420" width="154" height="12" rx="2" fill="#080f1e" stroke="#1a3d7f" stroke-width="0.7" opacity="0.9"/>

  <!-- LEDs row -->
  <g fill="#1a8fff" opacity="0.9">
    <circle cx="1714" cy="368" r="2"/>
    <circle cx="1714" cy="388" r="2"/>
    <circle cx="1714" cy="408" r="2"/>
    <circle cx="1714" cy="426" r="1.5"/>
  </g>
  <!-- Activity bars -->
  <rect x="1722" y="364" width="132" height="4" rx="1" fill="#0a2040" opacity="0.8"/>
  <rect x="1722" y="364" width="90" height="4" rx="1" fill="#1a5fff" opacity="0.45"/>
  <rect x="1722" y="384" width="132" height="4" rx="1" fill="#0a2040" opacity="0.8"/>
  <rect x="1722" y="384" width="110" height="4" rx="1" fill="#1a5fff" opacity="0.4"/>
  <rect x="1722" y="404" width="132" height="4" rx="1" fill="#0a2040" opacity="0.8"/>
  <rect x="1722" y="404" width="45" height="4" rx="1" fill="#1a5fff" opacity="0.45"/>

  <text x="1785" y="454" font-family="'Courier New', monospace" font-size="8" fill="#2a6fff" opacity="0.6" text-anchor="middle" letter-spacing="1.5">FIREWALL</text>


  <!-- ═══════════════════════════════════════════════
       LAYER 11: BOTTOM-CENTER NETWORK SWITCH / HUB
       Positioned at: ~1280,870
  ═══════════════════════════════════════════════ -->

  <!-- Network switch box -->
  <rect x="1160" y="850" width="240" height="52" rx="4" fill="#050e20" stroke="#1a3d8f" stroke-width="1.2" opacity="0.9"/>
  <!-- Front panel ports (8 ports) -->
  <g fill="none" stroke="#1a3d7f" stroke-width="0.7">
    <rect x="1172" y="862" width="14" height="10" rx="2" fill="#080f1e"/>
    <rect x="1190" y="862" width="14" height="10" rx="2" fill="#080f1e"/>
    <rect x="1208" y="862" width="14" height="10" rx="2" fill="#080f1e"/>
    <rect x="1226" y="862" width="14" height="10" rx="2" fill="#080f1e"/>
    <rect x="1244" y="862" width="14" height="10" rx="2" fill="#080f1e"/>
    <rect x="1262" y="862" width="14" height="10" rx="2" fill="#080f1e"/>
    <rect x="1280" y="862" width="14" height="10" rx="2" fill="#080f1e"/>
    <rect x="1298" y="862" width="14" height="10" rx="2" fill="#080f1e"/>
    <rect x="1316" y="862" width="14" height="10" rx="2" fill="#080f1e"/>
    <rect x="1334" y="862" width="14" height="10" rx="2" fill="#080f1e"/>
    <rect x="1352" y="862" width="14" height="10" rx="2" fill="#080f1e"/>
    <rect x="1370" y="862" width="14" height="10" rx="2" fill="#080f1e"/>
  </g>
  <!-- Port LEDs -->
  <g fill="#1a8fff" opacity="0.85">
    <circle cx="1179" cy="866" r="1.5"/>
    <circle cx="1197" cy="866" r="1.5"/>
    <circle cx="1215" cy="866" r="1.5"/>
    <circle cx="1251" cy="866" r="1.5"/>
    <circle cx="1269" cy="866" r="1.5"/>
    <circle cx="1305" cy="866" r="1.5"/>
    <circle cx="1341" cy="866" r="1.5"/>
    <circle cx="1377" cy="866" r="1.5"/>
  </g>
  <g fill="#0a4f90" opacity="0.5">
    <circle cx="1233" cy="866" r="1.5"/>
    <circle cx="1287" cy="866" r="1.5"/>
    <circle cx="1323" cy="866" r="1.5"/>
    <circle cx="1359" cy="866" r="1.5"/>
  </g>
  <!-- Status bar -->
  <rect x="1172" y="878" width="256" height="6" rx="2" fill="#0a2040" opacity="0.8"/>
  <rect x="1172" y="878" width="168" height="6" rx="2" fill="#1a5fff" opacity="0.35"/>
  <!-- Switch label -->
  <text x="1280" y="914" font-family="'Courier New', monospace" font-size="8" fill="#2a6fff" opacity="0.6" text-anchor="middle" letter-spacing="1.5">NETWORK SWITCH</text>


  <!-- ═══════════════════════════════════════════════
       LAYER 12: SCATTERED MICRO UI ELEMENTS
       Small tech detail overlays
  ═══════════════════════════════════════════════ -->

  <!-- Ping/latency indicator near shield (top) -->
  <g opacity="0.5">
    <rect x="1180" y="330" width="60" height="16" rx="3" fill="#050e20" stroke="#1a3d8f" stroke-width="0.6"/>
    <text x="1210" y="342" font-family="'Courier New', monospace" font-size="7" fill="#2a7fff" text-anchor="middle" letter-spacing="1">ARMED</text>
  </g>

  <!-- Data throughput indicator (right side) -->
  <g opacity="0.45">
    <rect x="1860" y="540" width="50" height="28" rx="3" fill="#050e20" stroke="#1a3d8f" stroke-width="0.6"/>
    <text x="1885" y="553" font-family="'Courier New', monospace" font-size="6.5" fill="#2a7fff" text-anchor="middle" letter-spacing="0.5">99.9%</text>
    <text x="1885" y="563" font-family="'Courier New', monospace" font-size="5.5" fill="#1a5fff" text-anchor="middle" letter-spacing="0.5" opacity="0.7">UPTIME</text>
  </g>

  <!-- Encryption chip indicator (near cloud) -->
  <g opacity="0.45">
    <rect x="1310" y="200" width="56" height="16" rx="3" fill="#050e20" stroke="#1a3d8f" stroke-width="0.6"/>
    <text x="1338" y="212" font-family="'Courier New', monospace" font-size="6.5" fill="#2a7fff" text-anchor="middle" letter-spacing="0.5">AES-256</text>
  </g>

  <!-- Threat level (near firewall) -->
  <g opacity="0.45">
    <rect x="1700" y="296" width="64" height="28" rx="3" fill="#050e20" stroke="#1a3d8f" stroke-width="0.6"/>
    <text x="1732" y="310" font-family="'Courier New', monospace" font-size="6.5" fill="#2a7fff" text-anchor="middle" letter-spacing="0.5">THREATS</text>
    <text x="1732" y="320" font-family="'Courier New', monospace" font-size="7" fill="#1a6fff" text-anchor="middle" letter-spacing="1" opacity="0.9">BLOCKED</text>
  </g>

  <!-- Scanning arc (decorative, around shield) -->
  <path d="M 1170 430 A 120 120 0 0 1 1390 430" fill="none" stroke="#1a5fff" stroke-width="0.7" opacity="0.2" stroke-dasharray="3 5"/>
  <path d="M 1140 480 A 145 145 0 0 1 1420 480" fill="none" stroke="#1a4fff" stroke-width="0.5" opacity="0.12" stroke-dasharray="4 6"/>


  <!-- ═══════════════════════════════════════════════
       LAYER 13: VIGNETTE + LEFT FADE
       (Ensures left 40% stays clean for content)
  ═══════════════════════════════════════════════ -->

  <!-- Vignette overlay -->
  <rect width="1920" height="1080" fill="url(#vignette)" opacity="0.8"/>

  <!-- Left area fade — softly blends graphic into dark for text area -->
  <rect x="0" y="0" width="840" height="1080" fill="url(#leftFade)" opacity="0.85"/>

  <!-- Bottom edge fade -->
  <linearGradient id="bottomFade" x1="0%" y1="0%" x2="0%" y2="100%">
    <stop offset="0%" stop-color="#050b18" stop-opacity="0"/>
    <stop offset="100%" stop-color="#030813" stop-opacity="0.85"/>
  </linearGradient>
  <rect x="0" y="900" width="1920" height="180" fill="url(#bottomFade)"/>

  <!-- Top edge fade -->
  <linearGradient id="topFade" x1="0%" y1="0%" x2="0%" y2="100%">
    <stop offset="0%" stop-color="#030813" stop-opacity="0.7"/>
    <stop offset="100%" stop-color="#030813" stop-opacity="0"/>
  </linearGradient>
  <rect x="0" y="0" width="1920" height="100" fill="url(#topFade)"/>

</svg>
